<?xml version="1.0" encoding="UTF-8" standalone="no"?>
<svg width="32px" height="32px" viewBox="0 0 32 32" version="1.1" xmlns="http://www.w3.org/2000/svg" xmlns:xlink="http://www.w3.org/1999/xlink" xmlns:sketch="http://www.bohemiancoding.com/sketch/ns">
    <!-- Generator: Sketch 3.0.4 (8053) - http://www.bohemiancoding.com/sketch -->
    <title>settings</title>
    <desc>Created with Sketch.</desc>
    <defs></defs>
    <g id="Page-1" stroke="none" stroke-width="1" fill="none" fill-rule="evenodd" sketch:type="MSPage">
        <g id="settings" sketch:type="MSArtboardGroup" fill="#D8D8D8">
            <path d="M13.6974947,4.71631261 C13.6822815,4.60862289 13.6744186,4.49855404 13.6744186,4.38663572 L13.6744186,3.3218663 C13.6744186,2.04702726 14.7156169,1 16,1 C17.2933376,1 18.3255814,2.03953495 18.3255814,3.3218663 L18.3255814,4.38663572 C18.3255814,4.4984369 18.3175736,4.60848599 18.3020961,4.71623042 C19.1642695,4.88938364 19.991957,5.15789626 20.7736871,5.51029671 C20.8237059,5.41690083 20.8806882,5.32579363 20.9447294,5.23764849 L21.5705851,4.37623193 C22.3199167,3.34486548 23.777691,3.10980362 24.8167788,3.86474508 C25.8631109,4.62494987 26.0871903,6.07268897 25.3334549,7.11011683 L24.7075991,7.97153338 C24.648512,8.05285977 24.58502,8.12923489 24.5176756,8.20056378 C25.110091,8.83774068 25.6318752,9.54148376 26.0705686,10.2993335 C26.1528131,10.2615658 26.2381296,10.2281691 26.3263216,10.1995137 L27.3389775,9.87048189 C28.5514215,9.47653496 29.8689515,10.1432241 30.2658477,11.3647451 C30.665511,12.5947823 29.9958354,13.8977384 28.7762658,14.2940006 L27.7636099,14.6230324 C27.6895555,14.6470942 27.6151089,14.6671991 27.5405041,14.6834625 C27.5981993,15.1529828 27.627907,15.6311616 27.627907,16.1162791 C27.627907,16.5234484 27.6069791,16.9257297 27.5661404,17.3221062 C27.6321151,17.3373845 27.69799,17.3556464 27.7636099,17.3769676 L28.7762658,17.7059994 C29.9887098,18.0999464 30.662744,19.413734 30.2658477,20.6352549 C29.8661844,21.8652921 28.5585471,22.5257803 27.3389775,22.1295181 L26.3263216,21.8004863 C26.275447,21.7839561 26.2255203,21.7658064 26.1765809,21.7461119 C25.7419841,22.530021 25.2194407,23.2584215 24.6222724,23.917992 C24.6516032,23.9537387 24.6800632,23.9905667 24.7075991,24.0284666 L25.3334549,24.8898832 C26.0827865,25.9212496 25.8558666,27.3803134 24.8167788,28.1352549 C23.7704467,28.8954597 22.3243206,28.6611959 21.5705851,27.6237681 L20.9447294,26.7623515 C20.9232152,26.7327398 20.9025058,26.7027755 20.8825972,26.6724854 C20.0753821,27.046476 19.218044,27.3306025 18.3234244,27.5120234 C18.3248576,27.5456236 18.3255814,27.5794088 18.3255814,27.6133643 L18.3255814,28.6781337 C18.3255814,29.9529727 17.2843831,31 16,31 C14.7066624,31 13.6744186,29.960465 13.6744186,28.6781337 L13.6744186,27.6133643 C13.6744186,27.5794202 13.6751568,27.5456376 13.676618,27.512032 C12.7819999,27.3306149 11.9246629,27.0464925 11.1174483,26.6725064 C11.0975172,26.7027723 11.0767925,26.7327292 11.0552706,26.7623515 L10.4294149,27.6237681 C9.68008327,28.6551345 8.222309,28.8901964 7.18322122,28.1352549 C6.1368891,27.3750501 5.91280966,25.927311 6.66654512,24.8898832 L7.29240088,24.0284666 C7.31992405,23.9905842 7.348403,23.9537761 7.37778187,23.9180519 C6.78061409,23.2584912 6.25806959,22.5301012 5.82346965,21.7462031 C5.7745223,21.7658294 5.7245793,21.7839476 5.6736784,21.8004863 L4.6610225,22.1295181 C3.44857852,22.523465 2.13104847,21.8567759 1.73415226,20.6352549 C1.33448895,19.4052177 2.00416457,18.1022616 3.22373416,17.7059994 L4.23639005,17.3769676 C4.30196571,17.3556608 4.36784877,17.3374566 4.43387694,17.3222749 C4.3930268,16.9258439 4.37209302,16.5235062 4.37209302,16.1162791 C4.37209302,15.6312345 4.40179174,15.1531263 4.45946994,14.683674 C4.38493378,14.6672894 4.31049932,14.647112 4.23639005,14.6230324 L3.22373416,14.2940006 C2.01129018,13.9000536 1.33725604,12.586266 1.73415226,11.3647451 C2.13381556,10.1347079 3.44145292,9.47421971 4.6610225,9.87048189 L5.6736784,10.1995137 C5.76179183,10.2281435 5.84706162,10.2616315 5.92928338,10.2995892 C6.3679498,9.54174168 6.88970519,8.83799739 7.4820907,8.2008151 C7.41494951,8.12939452 7.35154368,8.05293647 7.29240088,7.97153338 L6.66654512,7.11011683 C5.91721352,6.07875038 6.14413343,4.61968655 7.18322122,3.86474508 C8.22955333,3.1045403 9.6756794,3.33880408 10.4294149,4.37623193 L11.0552706,5.23764849 C11.1192459,5.32570292 11.1761052,5.41687491 11.2259505,5.51046008 C12.0076635,5.158035 12.8353354,4.88949536 13.6974947,4.71631261 L13.6974947,4.71631261 Z M16,21.4651163 C18.9540812,21.4651163 21.3488372,19.0703603 21.3488372,16.1162791 C21.3488372,13.1621978 18.9540812,10.7674419 16,10.7674419 C13.0459188,10.7674419 10.6511628,13.1621978 10.6511628,16.1162791 C10.6511628,19.0703603 13.0459188,21.4651163 16,21.4651163 Z" id="Cog" sketch:type="MSShapeGroup"></path>
        </g>
    </g>
</svg>